<svg width="573" height="350" viewBox="0 0 573 350" fill="none" xmlns="http://www.w3.org/2000/svg">
<path d="M116 5.09305L79.3415 5.09305L62.3528 37.2238L79.3415 68.9303H116L134.054 37.2238L116 5.09305Z" stroke="black" stroke-width="2"/>
<path d="M236.348 3.09302L199.69 3.09302L182.701 35.2238L199.69 66.9302H236.348L254.403 35.2238L236.348 3.09302Z" stroke="black" stroke-width="2"/>
<path d="M356.181 1L319.523 1L302.534 33.1307L319.523 64.8372H356.181L374.235 33.1307L356.181 1Z" stroke="black" stroke-width="2"/>
<path d="M177.448 110.116H140.79L123.801 142.247L140.79 173.954H177.448L195.502 142.247L177.448 110.116Z" stroke="black" stroke-width="2"/>
<path d="M117.643 145.744H80.9841L63.9955 177.875L80.9841 209.581H117.643L135.697 177.875L117.643 145.744Z" stroke="black" stroke-width="2"/>
<path d="M117.647 215H80.9886L64 247.131L80.9886 278.837H117.647L135.701 247.131L117.647 215Z" stroke="black" stroke-width="2"/>
<path d="M57.8687 250.721H21.2103L4.22168 282.852L21.2103 314.558H57.8687L75.923 282.852L57.8687 250.721Z" stroke="black" stroke-width="2"/>
<path d="M117.647 285H80.9886L64 317.131L80.9886 348.837H117.647L135.701 317.131L117.647 285Z" stroke="black" stroke-width="2"/>
<path d="M552.946 57.0259H516.287L499.299 89.1566L516.287 120.863H552.946L571 89.1566L552.946 57.0259Z" stroke="black" stroke-width="2"/>
<path d="M296.281 37.6279H259.622L242.634 69.7586L259.622 101.465H296.281L314.335 69.7586L296.281 37.6279Z" stroke="black" stroke-width="2"/>
<path d="M237.348 74.2093H200.69L183.701 106.34L200.69 138.046H237.348L255.403 106.34L237.348 74.2093Z" stroke="black" stroke-width="2"/>
<path d="M357.116 72.1628H320.458L303.469 104.294L320.458 136H357.116L375.17 104.294L357.116 72.1628Z" stroke="black" stroke-width="2"/>
<path d="M176.448 39.7674H139.79L122.801 71.8982L139.79 103.605H176.448L194.502 71.8982L176.448 39.7674Z" stroke="black" stroke-width="2"/>
<path d="M116.516 75.2093H79.8574L62.8688 107.34L79.8574 139.046H116.516L134.57 107.34L116.516 75.2093Z" stroke="black" stroke-width="2"/>
<path d="M55.6471 40.7674H18.9886L2 72.8982L18.9886 104.605H55.6471L73.7014 72.8982L55.6471 40.7674Z" stroke="black" stroke-width="2"/>
</svg>
